<mxfile host="app.diagrams.net" modified="2024-03-26T21:03:44.880Z" agent="Mozilla/5.0 (X11; Linux x86_64; rv:124.0) Gecko/20100101 Firefox/124.0" version="24.1.0" etag="wVRIaROmLEZGFmA-1T8N" type="github">
  <diagram name="Page-1" id="ExkjUEP7FSlKhI_aOg0g">
    <mxGraphModel>
      <root>
        <mxCell id="0" />
        <mxCell id="1" parent="0" />
      </root>
    </mxGraphModel>
  </diagram>
</mxfile>
